<svg xmlns="http://www.w3.org/2000/svg" viewBox="0 0 240.57 150.18">
  <title>logo</title>
  <g id="b5bfe971-00cd-4cef-822b-4e698ab01008" data-name="Layer 2">
    <g id="f7fa2030-ddfa-43ef-a91c-79bc90c0cc49" data-name="Layer 1">
      <g>
        <path d="M18.29,1.35H35.51L53.8,70.45H39.29L36.1,55.84H17.71L14.52,70.45H0Zm1.84,43.07H33.68L27,13.35h-.19Z" fill="#231f20"/>
        <path d="M83.51,24.68c0-10.07-2-14.42-8.32-14.42-7.06,0-8.71,7.06-8.71,26.61,0,20.9,2.91,24.68,8.9,24.68,5,0,8.71-2.62,8.71-17.52H98c0,14.9-3.68,27.77-22,27.77-20.9,0-23.51-14.9-23.51-35.9S55.16,0,76.06,0C96,0,97.45,14.61,97.45,24.68Z" fill="#231f20"/>
        <path d="M116.71,1.35v48.2c0,6.87,1.64,12,8.12,12s8.13-5.13,8.13-12V1.35H146.9v48.2c0,17.61-10.74,22.25-22.07,22.25S102.77,68,102.77,49.55V1.35Z" fill="#231f20"/>
        <path d="M196.15,1.35V12.77H181.06V70.45H167.12V12.77H152V1.35Z" fill="#231f20"/>
        <path d="M239.61,1.35V12.77H214.93V29h23.22V40.45H214.93V59h25.64V70.45H201V1.35Z" fill="#231f20"/>
        <path d="M18.29,81.08H35.51l18.29,69.1H39.29L36.1,135.56H17.71l-3.19,14.62H0Zm1.84,43.06H33.68L27,93.08h-.19Z" fill="#231f20"/>
        <path d="M57.1,81.08H82.84c11.42,0,18.38,6,18.38,17.81,0,9.19-3.67,15.38-11.51,17v.19c9.48,1.26,10.93,6.49,11.13,21.1.09,7.26.48,11,3.09,12.38v.59H88.84c-1.36-1.94-1.65-4.55-1.75-7.26l-.38-13.26c-.2-5.42-2.62-8.71-8.23-8.71H71v29.23H57.1ZM71,111.27h5.81c6.67,0,10.45-2.9,10.45-10.35,0-6.39-3.39-9.58-9.68-9.58H71Z" fill="#231f20"/>
        <path d="M147.67,81.08V92.5H132.58v57.68H118.64V92.5H103.55V81.08Z" fill="#231f20"/>
      </g>
    </g>
  </g>
</svg>
